<svg xmlns="http://www.w3.org/2000/svg" viewBox="0 0 209 18">
    <path d="M9.318 16.23l-.02-1.919-.1 1.326-.076-2.885-.067-.391.014-.724-.137-.616.015-.769v-.041a.164.164 0 01-.024-.043s-.054-.217-.41-.233c-.59-.1-.895-.356-.916-.556s-.916-.263-.916-.263l-.138-.017v.384l-.1.2v.77l-.28.774.024.226-.159 3.42-.109-2.21v1.344l-.127.41.021.952-.185 1.809-.191-1.8v-.752l-.056-.294.024-.8-.162-.7-.019-2.376-.08-.271-.134 2.836-.077-3.486-.053-.227v-.354a1.023 1.023 0 01-.429-.124 2.564 2.564 0 01-.527-.174c-.063-.046-.1-.03-.163-.016a.644.644 0 01-.163.016c-.206-.006-.723-.481-.82-.547s-.457.039-.546-.133S.846 7.945.386 7.393C-.261 6.61.08 6.431.124 6.163c.053-.321.66-.514.7-.561s.088-.09.131-.136a.269.269 0 01.1-.086.314.314 0 01.187 0c.13.014.258.048.378.1.062.057.136.1.217.126.168.087.33.187.483.3.21.146.185.216.435.216s.341.161.565.294c.485.161.996.231 1.507.206v-.013l-.236-.993.171-.624v-.627l.033-.3-.037-.411.148-.3v-.287l.51-.393.457.021.15-.614.147.872.284-1.436.153 1.73.089-.421.221 1.024-.094.341-.119.229.019.341-.055.124-.016.82-.154.41v.82l.09.026s.8.279 1.194.377a.917.917 0 00.67-.074c.114.057.081.236.266.291h.037v-.081l-.067-1.436.169-.363-.276-.762.016-1.024-.236-.593V2.143l.3-.574.571-.146.41-.149.314-1.267.09 1.23.108-.489.05.766.147-.822.113.954.136.034.072.41.028.461.014.343.033.359-.147.391-.074 2.119-.063-1.523-.088.351-.029 1.416.095.386-.035 1.546.067.023s.168-.031.293-.044c.215.053.422.133.616.24.164.066.164.13.292.189.354.023.494.3.684.433.057.033.117.06.179.083V7.299l-.146-.564.024-1.079v-.17l-.033-.1v-.011l-.067-1.774-.118-.217.09-.33-.064-.387.126-.349.019-.251.294-.356.206-1.276.125 1.1.136-.646.1.543.363.159.1-.241.18.473.206.081.125.691-.2.636-.033 1.12.165.531-.132 3.087-.1.217s.012-2.139 0-2.14-.1.466-.1.466v2.092l-.042.269v.369l.17.049c.284.079.58.103.873.069.163 0 .013.2.206.269a.26.26 0 00.182.007.214.214 0 01.2.033c.096.065.21.097.326.091.057.042.117.08.178.114l-.021-.706.107-1.312-.1-.327-.071.694-.161-.964V6.176l.1-.316v-.691l-.09-.28-.023-.121.124-.614.166-.141.116-.44.079.273.085-.894.111.683.053.07.07-.061.193-1.183.131 1.149.127.124.373.193.287.616-.019.379.089.094-.165.3.123.22-.154 3.452-.094-1.563-.153.349-.016 1.8-.129.331v.3a.66.66 0 00.312.066.622.622 0 01.464.066c.176.088.367.14.563.154.182.024.148-.059.22-.094s.141.053.183.233.5.109.5.109c.357.054.704.167 1.024.334.096.1.24.138.373.1 0 0 .188.264.437.19a.667.667 0 01.5.091c.248.07.474.199.659.377a.382.382 0 00.363.131.594.594 0 01.283.043c.221.109.074.25-.146.25a2.554 2.554 0 01-.9-.083 1.081 1.081 0 00-.719 0c-.3.046-.33-.144-.41-.227a.31.31 0 00-.293-.1 5.846 5.846 0 01-1.037-.241s-.857-.2-.693-.1a.66.66 0 01.323.364c.052.234-.151.256-.315 0a5.07 5.07 0 00-1.7-.476l.1.576-.158 2.976-.1-2.182-.053 1.593-.129.39-.16 1.816-.12-2.87-.193-.424.094-.82v-.966l-.026-.193h-.117c-.168-.017-.642.279-.783.293s-.1-.1-.1-.1-.579-.141-.722-.164c-.095 0-.19.01-.283.03-.2.033-.432.066-.492-.03a.36.36 0 00-.191-.11l-.147.5v2.035l-.159.39v.664l-.15 1.253-.068-2.949-.139-.206-.088 1.713-.234-2.109.1-.476-.013-1.1a.105.105 0 00-.022-.03c-.087-.111-.41-.03-.41-.03a.883.883 0 00-.639.2c-.1.066-.126.051-.262 0s-.13-.133-.114-.133c.265-.033.211-.039.142-.2s-.224-.093-.307-.061-.179-.2-.277-.393-.42-.081-.42-.081l-.177.024-.229 2.769-.021-2.732h-.039l-.1.749-.045 2.077-.16.523.042.917-.26 3.09-.078-1.381zm6.783-6.695l-.037.41c.054.023.109.043.165.066l-.053-1.319-.075.843zm154.319 6.206a6.296 6.296 0 01-2.2-1.434 6.944 6.944 0 01-1.5-2.3 8.036 8.036 0 01-.56-3.1 6.947 6.947 0 012.1-5.031 7.274 7.274 0 012.313-1.5 7.472 7.472 0 012.871-.551 7.852 7.852 0 011.846.206 6.409 6.409 0 012.831 1.452l-1.23 2.926a7.011 7.011 0 00-1.335-.732 7.315 7.315 0 00-1.349-.41 3.26 3.26 0 00-.45-.079h-.138a2.183 2.183 0 00-.256-.01 3.228 3.228 0 00-1.356.279l-.084.037a3.249 3.249 0 00-1.089.82 3.874 3.874 0 00-.719 1.242 4.574 4.574 0 00-.26 1.572 4.562 4.562 0 00.261 1.583c.161.451.408.865.729 1.22a3.23 3.23 0 001.12.792c.461.193.957.288 1.456.281a3.869 3.869 0 002.34-.932v-.912h-3.419l1.266-2.985h5.046l.009 5.773a7.016 7.016 0 01-5.586 2.29h-.045a7.205 7.205 0 01-2.612-.497zm-100 .253h-5.312V2.05h5.36a7.761 7.761 0 013 .55 6.13 6.13 0 013.536 3.7c.304.867.457 1.781.452 2.7a7.918 7.918 0 01-.5 2.87 6.254 6.254 0 01-1.425 2.2 6.414 6.414 0 01-2.219 1.414 7.946 7.946 0 01-2.8.508l-.092.002zm-1.72-3.156h1.806c.484.008.964-.09 1.406-.289.404-.187.76-.462 1.043-.806a3.58 3.58 0 00.641-1.22 5.183 5.183 0 00.209-1.536 5.054 5.054 0 00-.228-1.544 3.487 3.487 0 00-.651-1.2 2.941 2.941 0 00-1.044-.774 3.328 3.328 0 00-1.384-.28h-1.8l.002 7.649zm-37.096 3.161h-5.316V2.055h5.316a7.823 7.823 0 013.043.55 6.123 6.123 0 013.535 3.7c.305.867.458 1.781.453 2.7a7.875 7.875 0 01-.5 2.87 6.21 6.21 0 01-1.422 2.2 6.39 6.39 0 01-2.219 1.414 7.947 7.947 0 01-2.8.509l-.09.001zm-1.729-3.156h1.8a3.28 3.28 0 001.4-.289 2.942 2.942 0 001.044-.806c.291-.361.509-.775.642-1.22a5.146 5.146 0 00.217-1.535 5.062 5.062 0 00-.228-1.546 3.425 3.425 0 00-.653-1.2 2.917 2.917 0 00-1.043-.774 3.328 3.328 0 00-1.384-.28h-1.8l.005 7.65zm87.808 3.156h-5.316V2.055h5.316a7.83 7.83 0 013.045.55 6.117 6.117 0 013.546 3.7 7.98 7.98 0 01.45 2.7 7.854 7.854 0 01-.5 2.87 6.212 6.212 0 01-1.435 2.2 6.364 6.364 0 01-2.219 1.413 7.94 7.94 0 01-2.807.513l-.08-.002zm-1.727-3.16h1.8c.485.009.966-.09 1.408-.289a2.947 2.947 0 001.043-.809c.294-.363.512-.781.64-1.23a5.092 5.092 0 00.216-1.517 5.05 5.05 0 00-.227-1.549 3.485 3.485 0 00-.65-1.2 2.978 2.978 0 00-1.043-.78 3.372 3.372 0 00-1.386-.279h-1.8l-.001 7.653zm-25.907 3.16h-6.162V2.035h7.4c.459-.007.914.101 1.322.313.386.205.728.484 1.007.82.28.339.498.725.643 1.14.149.42.225.862.225 1.307a3.798 3.798 0 01-.5 1.876 3.16 3.16 0 01-1.51 1.344 3.703 3.703 0 011.9 1.232c.499.681.747 1.514.7 2.357a3.037 3.037 0 01-1.48 2.732 5.069 5.069 0 01-1.607.637 8.899 8.899 0 01-1.905.206h-.033zm-3.02-2.9h3.055c.297 0 .585-.099.821-.28.297-.298.451-.71.421-1.13a1.58 1.58 0 00-.373-1.05 1.039 1.039 0 00-.749-.32h-3.176l.001 2.78zm-.047-5.523h2.76c.273-.002.539-.094.754-.263.273-.278.415-.66.39-1.049a1.507 1.507 0 00-.346-.99.954.954 0 00-.688-.3H86.98l.002 2.602zm110.48 8.419V5.178h-3.836V2.051h11.818l-1.249 3.127h-3.076v10.821l-3.657-.004zm-8.742 0v-5.522h-5.388v5.526h-3.665V2.055h3.665v5.291h5.389V2.055h3.66v13.944l-3.661-.004zm-27.489 0V2.051h3.661v13.948l-3.661-.004zm-10.818 0V2.051h3.659v10.793h5.948l-1.25 3.152-8.357-.001zm-9.6 0V11.02l-4.963-8.982h3.956l2.929 5.455 2.934-5.455h3.877l-5.083 9.024v4.937l-3.65-.004zm-5.925 0l-1-2.69h-5.064l-.986 2.69h-3.589l5.292-13.944h3.725l5.313 13.944h-3.691zm-4.971-5.7h2.872l-1.436-3.909-1.436 3.909zm-30.376 5.7v-4.973L94.595 2.07h3.942l2.919 5.438 2.932-5.438h3.863l-5.072 8.992v4.937l-3.638-.004zm-38.648 0l-1-2.7h-5.058l-.976 2.7H50.27l5.291-13.944h3.716l5.312 13.944h-3.696zm-4.96-5.689l2.871-.01-1.435-3.9-1.436 3.91zm-16.029 5.693V2.055h9.954v3.137h-6.411v2.157h5.832v3.113h-5.832v2.38h6.382l-1.225 3.157h-8.7zm33.9-7.009v.009-.009zm-38.818 0v.009-.009zm86.079 0zm87.558-5.572V2.256l-.4 1.143h-.165l-.393-1.163v1.163l-.177.009V2.052h.271l.324.967c.028.091.051.156.064.206.014-.05.04-.123.073-.22l.327-.953h.244v1.366h-.168zm-1.941-.01v-1.2h-.452v-.151h1.093v.161h-.45v1.2l-.191-.01z"
          fill="rgba(255,255,255,.87)"/>
</svg>
